<svg xmlns="http://www.w3.org/2000/svg" viewBox="0 0 500 500"><g id="freepik--Table--inject-2"><polygon points="47.44 437.74 98.08 437.5 148.72 437.41 250 437.24 351.28 437.41 401.92 437.5 452.56 437.74 401.92 437.98 351.28 438.07 250 438.24 148.72 438.07 98.08 437.98 47.44 437.74" style="fill: #818181;"></polygon></g><g id="freepik--Character--inject-2"><path d="M287.78,243.22c50.46,52.73,113.29,163,100.94,185-13.76,24.47-84-49.43-83.69-53.68.25-3.21-23.85-70-42.17-118.53S275.3,230.18,287.78,243.22Z" style="fill: rgb(235, 148, 129);"></path><path d="M304.55,374.56c-2.08-7.13-34.91-95.17-44.26-123s-.17-36.26,27.34-10.48S375,352.47,388.26,397.63c12.78,43.5-9.51,43.16-38.62,22.76C325.8,403.68,304.55,374.56,304.55,374.56Z" style="fill:#FFC727"></path><path d="M258.08,229.68c-.19-.07-.38-.14-.58-.23a3.73,3.73,0,0,1,.31-.71c.38.15.77.29,1.16.42,3.15,1,7,1.33,9.77-.84a6.11,6.11,0,0,0,.86-.82l.76.38C267.54,231.26,262.12,231.16,258.08,229.68Zm21.75,4.6-.77-.61q-.66.32-1.32.6c-6.3,2.77-14.08,5.56-19.53,10.24l.24,1a38.79,38.79,0,0,1,9.64-6.1C271.94,237.55,276,236.08,279.83,234.28Zm7,18.76a51.71,51.71,0,0,1,6.16-6.6c-.2-.22-.41-.43-.61-.64-5.75,5-9.87,12.64-15.34,17.49a26.5,26.5,0,0,1-10.56,6c.09.26.18.52.28.78a24.84,24.84,0,0,0,7.61-3.67C279.54,262.89,283,257.84,286.84,253Zm28.41,19.8c-8.32,11.29-23.41,14-36.65,16-1.6.24-3.2.5-4.8.82.11.29.21.59.32.89,5.59-1.14,11.34-1.62,16.9-2.89,9.27-2.12,19-6.51,24.81-14.07h0Zm11.33,97.33c-5.72-1.43-10.92.47-15.95,3.13-1.65.88-3.32,1.81-5,2.68l.57.74c6.78-3.49,13.31-7.84,21.12-5.3,2.55.83,5,2.46,6,5,1.3,3.31-.16,6.76-2.47,9.21-3.23,3.41-7.64,4.77-11.91,6.38l.74.83,3.69-1.44c5.09-2,11.07-5.72,11.44-11.84C335.07,374.63,331.05,371.28,326.58,370.17Zm-19.9-61c4-5.69,7.75-11.6,11.78-17.3,1.74-2.47,3.57-5,5.57-7.37l-.57-.77c-1.07,1.26-2.08,2.55-3.06,3.85-4.06,5.39-7.7,11.08-11.48,16.66-5.7,8.41-12.39,17.88-21.17,23.71.11.31.22.61.34.92C295.6,323.88,301.65,316.23,306.68,309.16Zm2,15a13.63,13.63,0,0,0,5.6,12.81c4.66,3.2,9.87,1.23,13.18-2.87,2-2.42,3.37-5.2,5.12-7.76A32.67,32.67,0,0,1,340,318.5a22.23,22.23,0,0,1,5.56-3l-.57-.87a21.37,21.37,0,0,0-3.56,1.75c-5.65,3.44-9.09,8.75-12.55,14.2-1.78,2.78-3.92,5.74-7.21,6.79a8.12,8.12,0,0,1-8-2.15c-4.8-4.48-5.11-11.37-1.49-16.64C316,313,322.61,310,328.86,308c3.2-1,6.5-1.86,9.73-2.89l-.55-.81c-6.5,2.09-13.43,3.55-19,6.85C314.25,314,309.6,318.44,308.72,324.19Zm53,17.31a39.77,39.77,0,0,1-9.5,8.32,42.22,42.22,0,0,1-19.6,6.88,27.06,27.06,0,0,1-19.28-5.77c-4.75-3.82-9-8.56-15.3-9.6a18.79,18.79,0,0,0-5.4-.11c.13.35.25.69.38,1a17.39,17.39,0,0,1,7.34.76c3.32,1.11,6.06,3.38,8.66,5.63a46.16,46.16,0,0,0,7.92,6,26.56,26.56,0,0,0,9,2.91A37,37,0,0,0,344.41,355c6.33-2.5,13.24-6.8,17.84-12.5Zm.05,86.39c.93.5,1.85,1,2.75,1.4a32.11,32.11,0,0,1,8.8,3.42,29.52,29.52,0,0,0,3.53.76,44.76,44.76,0,0,0-9.71-4.56A26.42,26.42,0,0,0,361.73,427.89Zm5-77.53-.44-.78c-8.44,1.81-16.32,7.85-19.46,15.54-2.48,6.07-1,12,1.62,17.76a87.59,87.59,0,0,1,4.33,9.94,35.54,35.54,0,0,1,1.63,9.65,32.84,32.84,0,0,1-4.64,18l.78.54a32.68,32.68,0,0,0,4.58-13.51,36.41,36.41,0,0,0-2.51-17.84c-2.73-6.64-7.37-13.18-6-20.72C348.37,359.9,357.3,352.33,366.76,350.36Zm22.06,49.23a50.81,50.81,0,0,1-8.37,1.93c-3.4.42-7.5.27-9.5-3-1.44-2.36-1.18-5.39-.4-7.93,1.71-5.54,6.19-8.72,10.42-12.23-.11-.28-.24-.56-.37-.84-2.13,1.75-4.37,3.4-6.29,5.24-3.44,3.3-6,8.54-5.19,13.4,1,6.1,7.2,6.95,12.35,6.15a57,57,0,0,0,7.56-1.94C389,400.13,388.9,399.86,388.82,399.59Z" style="fill:#fff"></path><path d="M349.64,420.39c-23.84-16.7-45.09-45.83-45.09-45.83-2.07-7.13-34.92-95.17-44.26-123-3.45-10.29-4.38-17.92-2.78-22.15Z" style="opacity:0.1"></path><path d="M302.93,437.56H108.06s39.86-154.9,105.71-219c8.83-8.6,43.22-7.15,51.15,5.8C294.63,272.93,303.47,436.87,302.93,437.56Z" style="fill:#FFC727"></path><path d="M278.15,350.78c-7.66,10.88.67,25.7,12.88,28.26a16.33,16.33,0,0,0,7.57-.25l.09,1a17.12,17.12,0,0,1-7,.42c-10.86-1.69-20-13.26-17.09-24.28,2.24-8.59,11-14.57,19.68-14.84,0,.36.09.71.14,1.07a16.62,16.62,0,0,0-2.23.18A21,21,0,0,0,278.15,350.78ZM116.43,410l-.3-.25c-.11.33-.21.66-.31,1,7.61,6.29,9.18,17.62,11.62,26.83h1C125.84,427.93,124.42,416.8,116.43,410ZM149,354c5.95-.38,12-2.37,15.62-7.36,2.8-3.85,4.26-9.27,2.19-13.77-2.4-5.21-8.26-6.59-13.5-6.46-2.27.05-4.51.27-6.74.52l-.42,1a42.48,42.48,0,0,1,11-.37c3.22.44,6.39,1.85,8.19,4.67a10.72,10.72,0,0,1,1.1,8.18c-1.52,6.55-6.86,10.68-13.22,12.06-5.63,1.22-11.36.56-17-.25l-.36.91A66.87,66.87,0,0,0,149,354Zm8.39,72.89c-5.68-1-14.8,4.42-17.86-3-2.3-5.56,1-11.77,4.52-15.95,4.29-5.07,9.83-8.86,15.3-12.55,10.1-6.83,34.57-27.74,22.89-36.6-10.89-8.25-24.88,15.82-33.07,23.37-7.24,6.66-17.84,12.69-28.2,12.54l-.3.89c10.47.18,20.82-5.78,28.6-12.23,10.24-8.48,20.33-30.53,32.16-23.77,9.82,5.61-8.49,25.28-18.63,32.27-5.11,3.53-10.42,6.84-15.08,11-4.12,3.66-8.16,8.18-9.41,13.7-.92,4.08-.45,9.32,3.7,11.46,2.64,1.37,5.63.85,8.42.32,3.51-.68,6.8-1.09,10.06.68a13.56,13.56,0,0,1,6.6,8.55h1.07s0,0,0-.05C166.79,432.45,162.63,427.87,157.36,426.9Zm71.29-123.43a14.79,14.79,0,0,0-16,.79c-5,3.54-8.07,9.26-10.42,14.78-2.62,6.17-5,13-10.1,17.57-2.76,2.49-7.11,4.67-10.5,2-2.21-1.74-3-4.81-3.13-7.52-.19-5.8,3.27-11.28,6.73-15.66,3.58-4.55,7.76-8.58,11.37-13.11,3.35-4.2,6.29-9,7.08-14.4.39-2.67,0-5.56-2.19-7.35A9,9,0,0,0,195,279c-5.68.55-10.53,4.68-13.95,9a49.78,49.78,0,0,0-5,7.83c-1.55,2.95-2.7,6.1-4.27,9-1.82,3.4-4.95,5.05-8.73,3.89a12.21,12.21,0,0,1-6.15-4.56c-.14.29-.28.58-.41.87,2.78,3.41,6.94,6.07,11.37,4.63,2.81-.92,4.32-3.46,5.48-6,1.34-3,2.64-5.93,4.22-8.77,3.17-5.71,7.58-11.56,13.84-14.09,2.63-1.06,6-1.49,8.61-.12,3.63,1.91,3.17,6.37,2.22,9.74-3.18,11.17-13.69,18.23-20,27.52-2.88,4.26-5.27,9.4-4.59,14.67.62,4.74,4,9.15,9.25,8,6.17-1.34,10.19-7.85,12.7-13.11,2.86-6,4.78-12.41,8.85-17.73s10.32-8.88,17.09-6.57c7.25,2.47,11.4,9.63,11.67,17,.5,13.47-9,24.62-18.68,32.75-9.32,7.81-19.85,14.17-28.47,22.82a63.41,63.41,0,0,0-17.73,35.47c-1.21,8.23-1.2,18.13,2.13,26.3h1.26a37.59,37.59,0,0,1-2.18-7.51c-2.56-13.74.56-28.62,7.44-40.67,6.63-11.61,17.05-19.56,27.6-27.39,9.28-6.89,19-14.07,24.87-24.28C239.72,326.92,241.21,310.45,228.65,303.47Zm32.47,63.59a19.66,19.66,0,0,0-8.43-15.46,14,14,0,0,0-15.51-.23c-4.81,3.08-7.92,8.53-9.11,14-1.73,7.95-.29,16.11-.13,24.13A80.32,80.32,0,0,1,216,433.08c-.95,1.53-2,3-3.08,4.48h1.36a69.32,69.32,0,0,0,8.08-14.36,81.43,81.43,0,0,0,5.91-21.27c1.05-7.72.56-15.29.15-23-.39-7.42-.15-15.19,4.18-21.53,3.81-5.58,10.47-9,17.08-6.22S260,361,260.14,368c.4,14.47-10,26.62-17.13,38.27-3.4,5.54-6.45,11.4-7.88,17.78a36.51,36.51,0,0,0-.44,13.54h1a36,36,0,0,1,.88-15.31c3.67-13,13.24-23.21,19.35-35C259.13,381,261.56,374.12,261.12,367.06Zm29.05,44c-3.72-4.44-9.11-7.39-15-6.81-5.4.53-10.14,4-11.3,9.45-1.33,6.3,2,12.84,5.45,17.89,1.34,2,2.86,3.93,4.31,5.95h1.13c-2.72-3.9-5.77-7.6-7.84-11.91-3-6.24-4-14.8,3-18.81,5.91-3.41,13.19-1.43,17.9,3.05,5.1,4.86,7.49,11.8,8.91,18.53.63,3,1.11,6,1.59,9.14h.95C297.84,428.1,296.42,418.53,290.17,411.08ZM228.7,213.41q-.82.08-1.62.18a38.75,38.75,0,0,1-7.82,6.95,42.85,42.85,0,0,1-13.12,6l-1.22,1.38a32.31,32.31,0,0,0,3.35-.87C215.6,224.69,223.62,219.94,228.7,213.41Zm1.4,27.73a11.25,11.25,0,0,1-.87-7.74c1.12-5.08,5.18-10,10.5-10.85,6.89-1.12,12.33,4.94,18.35,7.13,3.06,1.12,6.9,1.45,9.82.08-.11-.24-.23-.47-.34-.69-2.61,1.32-5.87,1-8.59.09-6.12-2-11-7.63-17.81-7.55-9,.12-15.9,11.57-12,19.64,1.37,2.8,4,4.7,6.25,6.7a20.39,20.39,0,0,1,5.51,7.18,21,21,0,0,1,.17,16.56,14.37,14.37,0,0,1-12.7,8.92,17.23,17.23,0,0,1-13.76-6.31,11.84,11.84,0,0,1-2.59-7c-.09-3.42,1.2-6.74,2-10,1.27-4.85,1.46-11.21-4.09-13.43-4.45-1.79-9.72.44-13.2,3.27-4.65,3.77-6.53,9.72-9.13,14.9-2.78,5.53-6.84,10.78-13.45,11.38-.42,0-.83.06-1.24.06-.18.32-.36.65-.55,1h.26c5.34.05,9.8-2.73,12.89-7,3.64-5,5.2-11.2,8.72-16.3,3-4.33,9.43-8.33,14.85-6.62,7.89,2.49,3.93,12.25,2.63,17.71-1.18,4.93-.63,9.58,2.86,13.44,6.43,7.09,18.57,8,24.85.3,6.44-7.94,5.06-20.7-2.25-27.61C234.83,246.11,231.73,244.21,230.1,241.14Zm28.73,28.79c5.31,2,11.17-.45,15.55-3.48A32.31,32.31,0,0,0,279.5,262l-.24-.86c-.71.76-1.45,1.49-2.21,2.17-4.61,4.09-11.63,8.2-17.95,5.8-6.51-2.47-7.89-10.07-5.83-16,2.32-6.73,8.69-10.81,14.82-13.69q1.71-.8,3.45-1.53c-.09-.26-.2-.51-.31-.77-9.38,4.07-19.2,9.34-19.77,20.58C251.2,262.88,253.74,268,258.83,269.93ZM292,324.75a36.33,36.33,0,0,1-13.84,7.65c-7.15,2-14.4.26-18.94-5.83a29.62,29.62,0,0,1-4.36-9c-1.23-4-2.12-8.31-1-12.42,1.82-6.9,8.44-11.22,14.88-13.24,5.52-1.74,11.32-2.32,17-3.25-.07-.32-.13-.64-.19-1-2.34.42-4.67.79-6.94,1.13-6.75,1-13.68,2.4-19.18,6.7a17.3,17.3,0,0,0-6.89,16.25c.79,6.18,3.26,13,7.69,17.46s10.63,5.73,16.67,4.45a35.32,35.32,0,0,0,15.25-7.87C292.08,325.47,292,325.11,292,324.75Z" style="fill:#fff"></path><path d="M386.9,427.09c-14,14.5-41.94,15.79-121.71,18.72-11,.41-34.85-76.72-23.09-77.76,14.82-1.31,72.61-3.17,76.85-2.78C354.74,368.62,396.38,417.26,386.9,427.09Z" style="fill: rgb(235, 148, 129);"></path><path d="M267.77,369.91s-31.43-7-49.08-5.55c-23.63,1.93-43.24,13.33-51.17,18.6-16.55,11-49,49-39.63,60.29,8.45,10.18,39.61-30.38,39.61-30.38s-38.6,36.11-26.18,46.5,45.92-38.76,45.92-38.76-38.82,38-24.32,46.68c11,6.57,43.81-36.23,43.81-36.23S173.58,464,184.56,471.18c12.14,8,44.94-29.61,44.94-29.61,31,13.7,51.38,7.54,65.34,1.43C298.22,441.52,267.77,369.91,267.77,369.91Z" style="fill: rgb(235, 148, 129);"></path><path d="M180.05,399.52c-4.69,4.08-9.46,8.18-13.77,12.66s-8.46,9.11-12.34,14c-9.5,11.93-13.58,20.88-13.27,20.35,7.39-12.42,22.57-28.7,26.88-33.18s8.38-9.16,12.68-13.64C180.34,399.57,180.16,399.43,180.05,399.52Z" style="fill:#263238"></path><path d="M196.51,414.79c-5.76,5.46-11.68,10.68-17.2,16.4S169.1,442.77,164,448.83c-.39.46,0,.52.4.07,5.32-5.85,10.7-10.85,16.09-16.63s10.56-11.79,16.14-17.35C196.74,414.83,196.6,414.71,196.51,414.79Z" style="fill:#263238"></path><path d="M213,425.35c-9.23,7.9-17,17.5-24.38,27.09-.37.48.13.5.53,0,7.94-9.16,14.09-16.41,24.12-26.81C213.43,425.51,213.19,425.18,213,425.35Z" style="fill:#263238"></path><path d="M251.3,365.89l55.86,86.2s69-6.36,81.86-22.35c8.48-10.52-33.75-63.93-73.58-64.63Z" style="fill:#FFC727"></path><path d="M261.12,367.06a31.93,31.93,0,0,1-1.57,11.56l-.67-1a31.8,31.8,0,0,0,1.26-9.61,20,20,0,0,0-.18-2.19h1Q261.08,366.42,261.12,367.06Zm15,37.15.6.92a16.87,16.87,0,0,1,11.07,4.76c5.1,4.86,7.49,11.8,8.91,18.53.71,3.33,1.22,6.78,1.75,10.25l1.24,1.92c-1.61-10.41-2.61-21.26-9.53-29.51C286.66,406.89,281.66,404,276.13,404.21Zm76.52-14.52c-2-4.79-4.93-9.52-5.91-14.62l-.93-.55a31,31,0,0,0,2.67,8.36,87.59,87.59,0,0,1,4.33,9.94,35.54,35.54,0,0,1,1.63,9.65c.4,13.17-6.81,26.08-19.95,29.78-11.82,3.33-25.23-1.78-28.54-14.31A22.05,22.05,0,0,1,307.61,402c3.35-6.21,9.55-8.12,15.73-10.57,5.09-2,11.07-5.72,11.44-11.84.29-5-3.73-8.32-8.2-9.43-5.72-1.43-10.92.47-15.95,3.13-6.11,3.23-12.38,7.26-19.6,5.74a20.58,20.58,0,0,1-14.9-13.45h-1.21a21.82,21.82,0,0,0,16.76,14.61c13,2,22.55-13,35.62-8.79,2.55.83,5,2.46,6,5,1.3,3.31-.16,6.76-2.47,9.21-5.06,5.34-13,5.64-18.8,9.81-8.23,5.92-9.72,17.95-5.54,26.72,4.93,10.35,17.29,13.87,27.83,11.08,11.93-3.16,19.53-13.76,20.85-25.75A36.41,36.41,0,0,0,352.65,389.69Zm25.56,12.89-.73-.9c-2.57-.07-5.09-.8-6.53-3.14a8.18,8.18,0,0,1-1-5.17l-.87-.87a12,12,0,0,0,0,3.68C369.91,401,374,402.55,378.21,402.58ZM367.1,428.91c-4.72-1.4-10.26-1.65-14.82.46-4.86,2.24-6.92,7-6.25,12.22a39.59,39.59,0,0,0,1,4.58l.84-.16c-1-4.1-1.83-8.19.4-11.92,2.88-4.8,9.3-5.7,14.39-5.11,6.38.74,11.67,4.32,17.15,7.37l1.09-.55C376.36,433.29,372,430.36,367.1,428.91Z" style="fill:#fff"></path><path d="M360.13,384.54C340.08,368.2,333.3,365.38,301.74,365c-.26,0-.31.33-.05.34,34.61,1.56,50.59,14.35,58.21,19.46C360.1,384.92,360.31,384.69,360.13,384.54Z" style="fill:#263238"></path><path d="M327.69,442.38c-5.63-9.81-11.79-19.31-18-28.79s-12.35-19-18.77-28.31c-3.63-5.28-7.23-10.57-11-15.72-.1-.13-.35,0-.26.15,5.62,9.8,11.74,19.33,17.85,28.83s12.34,19,18.65,28.41c3.57,5.31,7.23,10.56,11,15.71C327.39,442.91,327.86,442.66,327.69,442.38Z" style="fill:#263238"></path><path d="M321.74,365.64h0l-46,38-24.47-37.75,64.16-.78c.75,0,1.51.05,2.27.1l3.59.39Z" style="opacity:0.1"></path><path d="M190.25,271.84c-8.19,92.46,4.61,166.11,43.43,171.42,25.78,3.52,19.32-74.66,19.26-76.33-.2-5.72-3.17-53.43-21.45-105.33C211.38,204.51,193.91,230.53,190.25,271.84Z" style="fill: rgb(235, 148, 129);"></path><path d="M190.25,271.84c-8.19,92.46,4.61,166.11,43.43,171.42,25.78,3.52,29.39-62.41,29.33-64.08-.21-5.72-13.24-65.68-31.52-117.58C211.38,204.51,193.91,230.53,190.25,271.84Z" style="fill:#FFC727"></path><path d="M233.73,268.18c5.65,17.41,10.79,35,15.78,52.6,4.75,17.67,9.82,35.32,12.8,53.39-6.77-31-20.15-74.9-28.58-106Z" style="fill:#263238"></path><path d="M238.51,272.5c1.28,5,2.24,10.33,1.06,15.39.15-5.07-.79-10.33-1.06-15.39Z" style="fill:#263238"></path><path d="M194.34,251.21c-.45.65-.86,1.31-1.26,2q.31-1.39.66-2.73a17.58,17.58,0,0,1,3.1-3.3c3.48-2.83,8.75-5.06,13.2-3.27,5.55,2.22,5.36,8.58,4.09,13.43-.85,3.26-2.14,6.58-2,10a11.84,11.84,0,0,0,2.59,7,17.23,17.23,0,0,0,13.76,6.31,13.65,13.65,0,0,0,8.4-3.18c.11.31.21.62.31.94-6.61,5.1-16.77,3.64-22.46-2.63-3.49-3.86-4-8.51-2.86-13.44,1.3-5.46,5.26-15.22-2.63-17.71C203.77,242.88,197.33,246.88,194.34,251.21Zm9.38,36.73c.39-2.67,0-5.56-2.19-7.35A9,9,0,0,0,195,279a14.9,14.9,0,0,0-5.51,1.69c0,.35-.06.7-.08,1.05a16.35,16.35,0,0,1,2-.95c2.63-1.06,6-1.49,8.61-.12,3.63,1.91,3.17,6.37,2.22,9.74-2.33,8.18-8.59,14.16-14.23,20.42,0,.45,0,.9,0,1.34,2.87-3.29,5.92-6.42,8.64-9.84C200,298.14,202.93,293.35,203.72,287.94Zm29.79,49.77c6.21-10.79,7.7-27.26-4.86-34.24a14.79,14.79,0,0,0-16,.79c-5,3.54-8.07,9.26-10.42,14.78-2.62,6.17-5,13-10.1,17.57a14,14,0,0,1-4,2.57c0,.36,0,.71.05,1.06,5.45-1.9,9.08-7.86,11.41-12.74,2.86-6,4.78-12.41,8.85-17.73s10.32-8.88,17.09-6.57c7.25,2.47,11.4,9.63,11.67,17,.5,13.47-9,24.62-18.68,32.75-8.87,7.43-18.83,13.55-27.2,21.58.07.47.14.94.22,1.4a159.92,159.92,0,0,1,17-14C217.92,355.1,227.63,347.92,233.51,337.71Zm22.43,49.5c3-5.75,5.27-12.11,5.23-18.64,0-.51,0-1-.05-1.51a21.64,21.64,0,0,0-2-7.89,18.2,18.2,0,0,0-6.45-7.57,14,14,0,0,0-15.51-.23c-4.81,3.08-7.92,8.53-9.11,14-1.73,7.95-.29,16.11-.13,24.13A80.32,80.32,0,0,1,216,433.08c-.22.36-.45.71-.68,1.07.27.26.55.51.83.76a73.78,73.78,0,0,0,6.21-11.71,81.43,81.43,0,0,0,5.91-21.27c1.05-7.72.56-15.29.15-23-.39-7.42-.15-15.19,4.18-21.53,3.81-5.58,10.47-9,17.08-6.22S260,361,260.14,368c.4,14.47-10,26.62-17.13,38.27-3.4,5.54-6.45,11.4-7.88,17.78a36.8,36.8,0,0,0,.61,18.29c.1.36.22.72.33,1.08.34,0,.68,0,1-.07a36.52,36.52,0,0,1-.49-21.07C240.26,409.24,249.83,399,255.94,387.21Z" style="fill:#fff"></path><path d="M188.49,284.52c-.11,22.57.47,45.17,2.34,67.65,2.37,28.13,9,87.43,45,90.23,5.64.34,10.84-.76,15.4-4.29,6.83-4.89,12.54-11.18,18-17.54,10.87-12.84,20.73-27.09,29.87-40.94l-2.19-2.23,2.27,2.15,0,0c-2.88,4.88-5.93,9.65-9,14.39-9.15,13.65-30.26,45-45.77,49.49-19,4.21-33.28-8.84-41-24.94-17-35.93-16-94.18-14.95-134Z" style="fill:#263238"></path><path d="M186.63,290.11c.48,4.28,1.18,8.41,1.64,12.69a27.18,27.18,0,0,1-1.64-12.69Z" style="fill:#263238"></path><path d="M254.48,268s-33.27-30.44-54.12-29L183.17,255.3s-5.75,2.1-7.68-1.53c-4.75-9-6.37-31,12.11-45.92,16.93-13.69,52.66-12.2,76.59-6.74,23,5.24,36,18.23,29.49,33.32S254.48,268,254.48,268Z" style="fill:#FFC727"></path><path d="M256.53,260.94s25.5-19.53,27.83-30.69-20.17-21-34.61-24.65c-22.35-5.67-37.38-3.74-49.39,8.49S256.53,260.94,256.53,260.94Z" style="opacity:0.1"></path><path d="M260.21,257.22c-11.92,1.5-30-18.41-36.31-33.66-.43-1,2.2-11.29,4.81-23.89,1.55-7.65,3.1-16.2,3.95-24.11.17-1.63,48.31,17.37,48.31,17.37s-6.65,16.06-8.05,29.86a18.93,18.93,0,0,0,0,3.28c0,.15,0,.34,0,.55C273.27,232.89,271.73,255.76,260.21,257.22Z" style="fill: rgb(235, 148, 129);"></path><path d="M267.81,226.33a28.7,28.7,0,0,0,5.11.28c0-.21,0-.39,0-.55a17.16,17.16,0,0,1,0-3.28c1.39-13.78,8-29.84,8-29.84s-39.08-15.43-47-17.3C234.58,184.94,238.62,222.55,267.81,226.33Z" style="fill:#263238"></path><path d="M216.88,135.75c-1.25,18.45,19.42,66.11,34.26,74.36,21.51,12,51,6.73,59.66-17.8,8.43-23.79-19.61-85.42-35.65-92.32C251.54,89.82,218.73,108.49,216.88,135.75Z" style="fill: rgb(235, 148, 129);"></path><path d="M255.49,214.9s0,0,0,0" style="fill:none;stroke:#f5a79e;stroke-linecap:round;stroke-linejoin:round;stroke-width:0px"></path><path d="M272.48,155.65c-.08-.11-.19.26-.13.39,1.48,3.18,2.64,7.06.19,9.37-.08.08,0,.23.1.17C276,163.56,274.39,158.42,272.48,155.65Z" style="fill:#263238"></path><path d="M268.17,153.52c-5.34,1.83-1.31,12.38,3.64,10.69S272.65,152,268.17,153.52Z" style="fill:#263238"></path><path d="M292.36,147.55c0-.14.31,0,.36.19,1.14,3.31,3,6.9,6.39,6.86.1,0,.15.16,0,.19C295.35,155.66,292.91,150.86,292.36,147.55Z" style="fill:#263238"></path><path d="M294,143c5.1-2.41,9.55,8,4.82,10.2S289.69,145,294,143Z" style="fill:#263238"></path><path d="M263.63,153.94a43.34,43.34,0,0,0,4.28-1.78c1.64-.7,3-1.09,4-2.65a2.38,2.38,0,0,0-.55-2.86c-1.77-1.41-4-1.05-6-.28a8.65,8.65,0,0,0-4.8,4C259.47,152.35,261.63,154.56,263.63,153.94Z" style="fill:#263238"></path><path d="M294.24,134.27a44.84,44.84,0,0,1-4.61.52c-1.77.18-3.17.5-4.8-.37a2.4,2.4,0,0,1-.92-2.77c.88-2.09,3-2.85,5.11-3.15a8.7,8.7,0,0,1,6.16,1.21C297.1,130.87,296.28,133.85,294.24,134.27Z" style="fill:#263238"></path><path d="M280.9,186c1.07.47,2.26,1.22,3.48.87a9.27,9.27,0,0,0,3.2-2.17.12.12,0,0,1,.21.11,4.74,4.74,0,0,1-3.47,3.37c-1.58.3-2.8-.7-3.68-1.91C280.52,186.08,280.74,185.91,280.9,186Z" style="fill:#263238"></path><path d="M282.92,180.83c3.5-3.25,9-4.79,12.57-5.68.35-.2.41-1.08.33-1.46v0l-2.89-6.82c1.09.1,6.53.38,5.95-.89-4.82-10.5-10.18-22.18-17.19-31.62a.32.32,0,0,0-.56.32c4.23,10.27,10.24,19.74,14.66,30-1.7,0-4.51-.09-5.8.45-.32.23,3.43,7.06,3.74,8.22,0,0-7.36.59-11.41,6.11C281.26,180.86,281.24,182.38,282.92,180.83Z" style="fill:#263238"></path><path d="M227.51,181c8.06-.74,10.37-13.94,10.51-19.2s-7.24-24.83-6.28-33,8.53-13.53,15.2-14,17.42,4.44,21.69,2.36,1.7-12.08,4.78-13.25c6.78-2.57,16,11.4,20.06,18.37,0,0-8.75-34-44.73-24-32.81,9-34.72,34.83-33.85,45.43C216.54,163.92,227.51,181,227.51,181Z" style="fill:#263238"></path><path d="M275.68,177.23a14.88,14.88,0,1,1,8.72-21.82h0a14.9,14.9,0,0,1-5.32,20.36A15.1,15.1,0,0,1,275.68,177.23ZM268,150.54a12.45,12.45,0,0,0-2.94,1.27,12.85,12.85,0,1,0,2.94-1.27Z" style="fill:#ebebeb"></path><path d="M307.09,163.84c-5.47,1.58-12-2.59-15-9.75a17.74,17.74,0,0,1-1.13-10.81,9.88,9.88,0,0,1,5.58-7.2c2.8-1.18,6-.79,9.05,1.06a17.8,17.8,0,0,1,6.93,8.37c3.17,7.57,1.17,15.65-4.46,18A7.14,7.14,0,0,1,307.09,163.84ZM298,137.67a6.84,6.84,0,0,0-.72.25,7.9,7.9,0,0,0-4.41,5.82,15.83,15.83,0,0,0,1,9.58c2.76,6.55,8.74,10.32,13.37,8.37s6.14-8.85,3.39-15.41a15.78,15.78,0,0,0-6.12-7.44A8.19,8.19,0,0,0,298,137.67Z" style="fill:#ebebeb"></path><path d="M284.6,157.19l-1.77-.91c1.35-2.62,5.18-7,10-4.81l-.81,1.81C287.7,151.32,284.73,157,284.6,157.19Z" style="fill:#ebebeb"></path><path d="M225,186.38l-2-.16c.07-.92.83-9.1,4.65-11.48,3.57-2.22,29.12-10.24,30.2-10.58l.6,1.9c-7.33,2.29-27,8.64-29.75,10.36C226.16,178,225.14,184.14,225,186.38Z" style="fill:#ebebeb"></path><path d="M240.23,174.75S225,161.57,218.7,167.41s8.07,26.92,17.41,27.94,10.44-7.62,10.44-7.62Z" style="fill: rgb(235, 148, 129);"></path><path d="M223,173.35a.12.12,0,0,0,0,.24c6.6.91,11.16,5.66,14.82,10.85-2.34-1.76-5.07-2.36-7.5.51-.12.15.09.36.25.28,2.31-1.15,4.19-1.17,6.34.37a26,26,0,0,1,4,4c.42.46,1.31-.07.95-.63a.57.57,0,0,0-.08-.13C240,181.21,231.34,172,223,173.35Z" style="fill:#263238"></path><path d="M256.53,260.94s-27.29-42.86-59.69-46.11L200.36,239s19.24-.6,54.12,29Z" style="fill:#FFC727"></path><path d="M191.68,239.71c5.88-.93,11.79.18,17.39,1.74a77,77,0,0,1,16.1,6.87,131.88,131.88,0,0,1,14.77,9.49l6.93,5.43,6.69,5.75.75.65.8-.44a148.68,148.68,0,0,0,17-11.07,83.47,83.47,0,0,0,7.82-6.48,52,52,0,0,0,6.77-7.53c-4.62,4.92-10.09,8.81-15.62,12.55-2.78,1.85-5.64,3.59-8.53,5.26s-5.79,3.36-8.73,4.87l1.54.2-6.7-5.95c-2.31-1.89-4.67-3.73-7-5.56s-4.91-3.44-7.44-5-5.13-3.12-7.85-4.4a70.45,70.45,0,0,0-16.89-6.2c-1.45-.36-2.95-.56-4.43-.81s-3-.31-4.49-.33A26.47,26.47,0,0,0,191.68,239.71Z" style="fill:#263238"></path><path d="M183.17,255.3a87.68,87.68,0,0,0,9.09-7.64,86.49,86.49,0,0,0,8.1-8.68,86.48,86.48,0,0,0-9.1,7.63A88.88,88.88,0,0,0,183.17,255.3Z" style="fill:#263238"></path><path d="M244.18,252.4a178,178,0,0,0-.42,30.7c.47,7.14,5.43,32.45,13.27,30.84s-6.49-17-9.93-30.26c-3.48-13.48-.68-23.46-.9-31.57Z" style="fill:#FFC727"></path><g style="opacity:0.1"><path d="M244.18,252.4a178,178,0,0,0-.42,30.7c.47,7.14,5.43,32.45,13.27,30.84s-6.49-17-9.93-30.26c-3.48-13.48-.68-23.46-.9-31.57Z"></path></g><path d="M270.92,253.67a161.66,161.66,0,0,1,8.24,26.59c1.43,6.33,3.62,29.62-3.61,30.23s1.28-16.43.86-28.87C276,269,271,261,269.09,253.93Z" style="fill:#FFC727"></path><g style="opacity:0.1"><path d="M270.92,253.67a161.66,161.66,0,0,1,8.24,26.59c1.43,6.33,3.62,29.62-3.61,30.23s1.28-16.43.86-28.87C276,269,271,261,269.09,253.93Z"></path></g><path d="M240.9,437.65c21.28-3.27,56.15-51.21,78.25-106,4.21-10.43-76.77-52.6-80-41-10.28,37.21-30.41,85.88-29.76,115.9C209.92,429.89,226.19,439.92,240.9,437.65Z" style="fill: rgb(235, 148, 129);"></path><path d="M278.78,251.16c-5.16-6.32-5.95-24-10.58-34.42S250,201.43,247.61,205.26s1.15,7.69,2.26,24.81c.71,11-7.72,33-4.12,53C247.56,293.1,284,257.48,278.78,251.16Z" style="fill: rgb(235, 148, 129);"></path><path d="M278.78,251.16c-5.16-6.32-5.95-24-10.58-34.42S250,201.43,247.61,205.26s1.15,7.69,2.26,24.81c.71,11-7.72,33-4.12,53C247.56,293.1,284,257.48,278.78,251.16Z" style="fill: rgb(235, 148, 129);"></path><path d="M278.78,251.16c-5.16-6.32-5.95-24-10.58-34.42S250,201.43,247.61,205.26s1.15,7.69,2.26,24.81c.71,11-7.72,33-4.12,53C247.56,293.1,284,257.48,278.78,251.16Z" style="opacity:0.06"></path><path d="M319,197.39c7.23,6.74-10.91,23.15-10.91,23.15s6.59-1.78,12.32,1.42c6.56,3.65,3.7,15.55,3.7,15.55s7.05-.42,12.76,3.56c5.93,4.14,4.75,16.55,4.75,16.55s6.78,3.22,9.24,10.2c4.22,11.95-9,26.28-15.4,36.77-6.87,11.23-15.49,25.17-20.43,32.09l-77.45-39.4s13.27-59.23,23.78-69.37C270.25,219.37,308,187.08,319,197.39Z" style="fill: rgb(235, 148, 129);"></path><path d="M307.78,220.49c-11.6,6.82-21.54,16.4-31,25.75a.23.23,0,0,0,.33.33c9.33-9.41,21.4-16.55,31.08-25.57A.32.32,0,0,0,307.78,220.49Z" style="fill:#263238"></path><path d="M323.17,237.08c-2.58,1.62-4.61,4.09-6.65,6.31-2.2,2.39-4.36,4.83-6.47,7.29q-6.36,7.4-12.35,15.11c-.18.23.13.56.33.33,4.23-4.91,8.54-9.76,13-14.48q3.33-3.55,6.72-7c2.09-2.17,4.49-4.28,6.07-6.88A.47.47,0,0,0,323.17,237.08Z" style="fill:#263238"></path><path d="M341.47,257.82c-2.3,1.32-4,4-5.69,6q-2.82,3.44-5.69,6.84c-3.82,4.53-7.64,9.06-11.62,13.46-.2.22.13.55.33.33,4.06-4.45,8.18-8.84,12.2-13.33q3-3.3,5.89-6.64c1.66-1.89,3.95-4.06,4.81-6.47A.16.16,0,0,0,341.47,257.82Z" style="fill:#263238"></path><path d="M310.39,195.38c-13.15,5.44-28.91,17-38.15,24.18a126.2,126.2,0,0,0-9.91,8.54c-3.06,3.07-5.06,7-7,10.85-1.33,2.61-2.46,5.32-3.58,8,2-7,4.4-14.44,9.38-20a99.47,99.47,0,0,1,9.94-8.87c9.3-7.15,18.84-14.4,29.66-19.07Z" style="fill:#263238"></path><path d="M222.49,312.26l76.65,67.33s-40.08,64.78-58.77,63.51-39-13.37-37.47-58.3C203.27,373.55,222.49,312.26,222.49,312.26Z" style="fill:#FFC727"></path><path d="M208.64,362l-1,.72c.14-.54.29-1.08.43-1.63,3.55-2.63,7.1-5.27,10.48-8.11,8.53-7.14,16.88-16.62,18.43-28l.76.67a35.92,35.92,0,0,1-4.27,12C227.63,347.92,217.92,355.1,208.64,362Zm44.05-10.39a14,14,0,0,0-15.51-.23c-4.81,3.08-7.92,8.53-9.11,14-1.73,7.95-.29,16.11-.13,24.13a80.25,80.25,0,0,1-11.71,43.19c.27.28.55.55.83.81a78,78,0,0,0,5.31-10.32,81.43,81.43,0,0,0,5.91-21.27c1.05-7.72.56-15.29.15-23-.39-7.42-.15-15.19,4.18-21.53,3.81-5.58,10.47-9,17.08-6.22S260,361,260.14,368c.4,14.47-10,26.62-17.13,38.27-3.4,5.54-6.45,11.4-7.88,17.78a36.8,36.8,0,0,0,.61,18.29,2.41,2.41,0,0,0,.08.25l1.07.17a36.48,36.48,0,0,1-.3-20.48c3.67-13,13.24-23.21,19.35-35,3.19-6.19,5.62-13.09,5.18-20.15A19.66,19.66,0,0,0,252.69,351.6Zm22.46,52.67c-5.4.53-10.14,4-11.3,9.45-.82,3.9.14,7.9,1.81,11.57.23-.27.48-.54.72-.81-2.57-6.1-3-13.88,3.52-17.64a13.7,13.7,0,0,1,11.31-.92c.2-.27.39-.54.6-.81A15.19,15.19,0,0,0,275.15,404.27Zm23.16-25.41A16.35,16.35,0,0,1,291,379c-9.44-2-16.56-11.28-15.77-20.42l-1-.91c-1.55,10.45,7.17,20.9,17.45,22.5a17.34,17.34,0,0,0,7.41-.53l.05-.09Z" style="fill:#fff"></path><path d="M221.64,340.11c3.75,3.13,7.25,6.59,10.81,9.93s7.1,6.73,10.59,10.16q10.46,10.29,20.75,20.73c1.87,1.91,3.74,3.82,5.58,5.77s3.67,4.41,5.66,6.46a.18.18,0,0,1-.25.25c-1.74-1.65-3.72-3.06-5.5-4.68s-3.65-3.4-5.45-5.13q-5.28-5.09-10.52-10.22c-7-6.84-13.93-13.73-20.68-20.79-3.81-4-7.78-7.92-11.35-12.13A.25.25,0,0,1,221.64,340.11Z" style="fill:#263238"></path><path d="M231.17,319.89l-8.86-7.42.43-.12c-4.21,15.88-8.86,31.64-13.22,47.47a213.24,213.24,0,0,0-5,20.8,113.45,113.45,0,0,0-.08,27.5,85.93,85.93,0,0,1-2.1-27.75c2.17-15.35,7.09-30.16,11.67-44.91,2.61-7.95,5.37-15.84,8.36-23.66l.29.26,8.5,7.83Z" style="fill:#263238"></path></g><g id="freepik--speech-bubble--inject-2"><path d="M355.93,133.68a10.48,10.48,0,1,1-11.35-9.55A10.48,10.48,0,0,1,355.93,133.68Z" style="fill:#fff"></path><path d="M355.93,133.68c.9,9.32-10.19,15.22-17.47,9.25a10.85,10.85,0,0,1-1.33-15.37c6.14-7.14,18.09-3.23,18.8,6.12Zm0,0c-.81-9.13-12.41-12.67-18.14-5.57A10.26,10.26,0,0,0,339,142.28c6.86,6,17.69.52,16.92-8.6Z" style="fill:#263238"></path><path d="M328.15,144.56a5.83,5.83,0,1,1-6.31-5.31A5.84,5.84,0,0,1,328.15,144.56Z" style="fill:#fff"></path><path d="M328.15,144.56A6.09,6.09,0,1,1,317.54,141a6.11,6.11,0,0,1,10.61,3.53Zm0,0c-.88-7.37-11.54-6.39-11.12,1,.85,7.32,11.52,6.45,11.12-1Z" style="fill:#263238"></path><path d="M447.48,88.73a30.62,30.62,0,0,1-42.29,31.9,25.68,25.68,0,0,1-40.85-.09,19.53,19.53,0,0,1-3.43.72,20.83,20.83,0,0,1-19.57-32.64,30.61,30.61,0,0,1,41.22-44.28,25.68,25.68,0,0,1,44.09,7,16.23,16.23,0,0,1,3.29-.75,16.8,16.8,0,0,1,14.45,28A30,30,0,0,1,447.48,88.73Z" style="fill:#fff"></path><path d="M447.48,88.73a30.74,30.74,0,0,1-42.36,32.07l.21-.06a25.93,25.93,0,0,1-41.24,0l.34.11a19.17,19.17,0,0,1-4.81.83C342,122.77,330.87,102.83,341,88.36l0,.54c-15.1-18.93-3.13-47.36,20.91-50a30.87,30.87,0,0,1,20.83,5.18l-.41.07c12.49-15.59,37.48-11.58,44.47,7.13l-.19-.09a15,15,0,0,1,4.09-.79,16.88,16.88,0,0,1,13.72,28.21,29.06,29.06,0,0,1,3.07,10.12Zm0,0a30.1,30.1,0,0,0-3.12-10.15,16.72,16.72,0,0,0-17.8-27c-6.87-18.43-31.52-22.45-43.77-7l-.17.22-.24-.16a30.1,30.1,0,0,0-20.4-5c-23.36,2.7-34.77,30.25-20.28,48.71l.21.27-.19.27c-9.8,13.89.88,33.12,17.86,32.15a18.93,18.93,0,0,0,4.88-.85,25.44,25.44,0,0,0,40.59.34l.09-.11.12.06a30.56,30.56,0,0,0,42.22-31.74Z" style="fill:#263238"></path></g><g id="freepik--Symbol--inject-2"><path d="M395.25,87.05,395,91.28a3.1,3.1,0,0,1-3.36,3,3.19,3.19,0,0,1-3-3.36l.38-6.76c0-.07.07-.06.08-.13S389,84,389,83.9a3.27,3.27,0,0,1,3.36-3,7.3,7.3,0,1,0,.82-14.57,7.2,7.2,0,0,0-6.44,3.23,3.2,3.2,0,1,1-5.35-3.5,13.69,13.69,0,1,1,13.82,21Zm-.8,14.24-.07,1.17a3.11,3.11,0,0,1-3.36,3,3.21,3.21,0,0,1-3-3.37l.07-1.17a3.23,3.23,0,0,1,3.36-3A3.15,3.15,0,0,1,394.45,101.29Z" style="fill:#FFC727"></path></g></svg>
